<?xml version="1.0" encoding="UTF-8"?>
<svg width="217px" height="151px" viewBox="0 0 217 151" version="1.1" xmlns="http://www.w3.org/2000/svg" xmlns:xlink="http://www.w3.org/1999/xlink">
    <!-- Generator: Sketch 52.3 (67297) - http://www.bohemiancoding.com/sketch -->
    <title>Davin</title>
    <desc>Created with Sketch.</desc>
    <defs>
        <filter x="-5.7%" y="-8.4%" width="111.5%" height="116.8%" filterUnits="objectBoundingBox" id="filter-1">
            <feOffset dx="0" dy="2" in="SourceAlpha" result="shadowOffsetOuter1"></feOffset>
            <feGaussianBlur stdDeviation="2" in="shadowOffsetOuter1" result="shadowBlurOuter1"></feGaussianBlur>
            <feColorMatrix values="0 0 0 0 0   0 0 0 0 0   0 0 0 0 0  0 0 0 0.5 0" type="matrix" in="shadowBlurOuter1" result="shadowMatrixOuter1"></feColorMatrix>
            <feMerge>
                <feMergeNode in="shadowMatrixOuter1"></feMergeNode>
                <feMergeNode in="SourceGraphic"></feMergeNode>
            </feMerge>
        </filter>
    </defs>
    <g id="Orginal" stroke="none" stroke-width="1" fill="none" fill-rule="evenodd">
        <g id="davin" transform="translate(-612.000000, -3798.000000)" fill="#FFFFFF">
            <g id="Group-20" transform="translate(145.000000, 3800.000000)">
                <g id="Davin" filter="url(#filter-1)" transform="translate(471.000000, 0.000000)">
                    <path d="M143.013001,0 L150.987224,0 C150.987224,12.6683896 151.01597,25.3264418 150.987224,38 C148.47101,36.2950529 145.801875,34.7806151 143.007251,33.4722524 C143.013001,22.3131121 142.984254,11.1591404 143.013001,0 Z" id="Path"></path>
                    <path d="M153.016427,0 L160.983573,0 C161.005476,17.6666667 161.005476,35.3333333 160.983573,53 C158.88488,48.9312068 156.195467,45.1849857 153,41.8792718 C153.016427,27.9177177 152.983573,13.9615541 153.016427,0 Z" id="Path"></path>
                    <path d="M8.87291779,45.7202474 C14.8151745,39.0549339 23.0873649,35.1876501 31.8037214,35 C31.8037214,37.4436639 31.8037214,39.8926401 31.8037214,42.3416164 C19.7841161,42.6550428 8.78648239,52.9662421 7.39843153,65.4661143 C5.77649664,76.2447971 11.5015709,87.5440865 20.6993145,92.5589099 C27.0973404,96.1022501 34.6420226,96.6107649 41.4227518,93.9556783 C48.2034811,91.3005917 53.5699838,85.7365272 56.1632513,78.6725241 C58.1207589,73.8914425 57.6326531,68.5791296 57.6580753,63.5111831 C60.1036887,63.45806 62.5543866,63.4474354 65,63.5111831 C64.6695117,68.5206942 65.1474486,73.6577007 63.7136378,78.5344039 C59.9482241,92.0424793 48.6010049,101.726166 35.1808912,102.884174 C21.7607774,104.042182 9.04678133,96.4347137 3.21136434,83.7550844 C-2.62405265,71.0754551 -0.372503263,55.9493392 8.87291779,45.7202474 Z" id="Path"></path>
                    <path d="M53.2199997,35.4147951 C56.3343766,34.3824691 59.8301058,35.3456187 62.3382304,37.5433024 C65.4134462,40.283271 66.7036586,44.746782 65.6237269,48.909531 C64.3623309,54.2627267 58.8571686,58.1206461 53.8898107,56.7051888 C49.4895921,55.6781841 45.9498608,51.1231786 46.0134195,46.1850418 C45.7640738,41.3746154 49.0202355,36.761076 53.2199997,35.4147951 Z M53.7578041,39.6718096 C51.4061318,40.7360632 49.5824856,43.3966973 49.7976074,46.2542183 C49.8269422,49.5587257 52.4768516,52.4854232 55.4738894,52.7780929 C59.2482991,53.2144369 62.7733631,49.1543094 62.1231086,45.078218 C61.731978,40.948914 57.2535333,37.9157912 53.7578041,39.6452033 L53.7578041,39.6718096 Z" id="Shape" fill-rule="nonzero"></path>
                    <path d="M82.9240184,34 C92.027909,34.9698148 100.777503,39.7922453 106.292211,47.433533 C112.720903,56.0179922 114.666969,67.89023 111.529644,78.2384732 C108.707739,87.6717378 102.098592,95.3812672 93.398884,99.387895 C85.1422253,102.883491 75.4735135,102.931449 67.2887411,99.1640916 C63.9176726,97.6498812 60.7861522,95.6162968 58,93.1320569 C59.6009597,91.2673648 61.0992613,89.3104155 62.487761,87.2705392 C69.4137252,94.0099911 79.2954826,96.3666542 88.361706,93.4411188 C97.0188743,90.3078711 103.919962,82.1656901 105.460384,72.7393038 C106.194651,67.2507917 105.701716,61.463875 103.216503,56.4815849 C99.416797,48.3607185 91.5349741,42.6590603 82.9445574,41.4601135 C82.8469974,38.9982761 82.8829405,36.4831521 82.9240184,34 Z" id="Path"></path>
                    <path d="M106,44.9818652 C113.870296,36.6920449 125.885514,33.090773 136.717913,35.9919449 C147.944585,38.7552183 157.351536,48.312644 160.268145,60.034015 C161.248773,65.3378028 160.945486,70.806008 160.985924,76.205264 C160.985924,85.1368427 160.985924,94.0684213 160.985924,103 C158.52256,103 156.064251,103 153.610997,103 C153.610997,92.3040279 153.610997,81.6062879 153.610997,70.90678 C153.560449,67.4274952 153.914283,63.8633498 152.852779,60.5007483 C150.500169,53.2505983 145.269604,47.4253136 138.512149,44.5295755 C131.754693,41.6338375 124.133045,41.9516292 117.61589,45.4008645 C114.916636,46.8275834 112.647039,48.9544023 110.29151,50.9115 C108.988111,48.8371375 107.554432,46.8562049 106,44.9818652 Z" id="Path"></path>
                    <path d="M165,37.8135213 C172.667116,34.2581958 181.636753,33.9769536 189.358141,37.5163597 C197.937464,41.3137747 204.540216,48.961717 207.426407,58.4447643 C210.312598,67.9278116 209.192691,78.2946408 204.361808,86.8133353 C199.847387,94.8685354 192.081595,100.891363 183.398118,102.39309 C177.260478,103.592349 170.733069,103.072316 165.004934,100.312959 C165.004934,97.5854408 165.004934,94.8579224 165.004934,92.1357106 C168.838492,94.4811641 173.204899,95.9298265 177.645314,95.6645037 C182.233742,95.9139072 186.605084,94.0301153 190.473178,91.536081 C197.336085,86.9300773 202.003455,78.5246511 202.06266,69.7689988 C202.556039,58.4503283 195.347767,47.4818839 185.396304,43.9318649 C178.740616,41.5757985 171.048831,41.9737827 165.009868,46.0013827 C165,43.2367192 165,40.5357331 165,37.8135213 Z" id="Path"></path>
                    <path d="M54.2561955,41.470122 C57.0695927,39.6976773 60.8794978,43.2682544 59.8181009,46.6590182 C59.1784818,49.5617176 55.4844496,51.1851743 53.4589891,48.9657652 C51.1554333,47.1316702 51.6977191,42.7185396 54.2561955,41.470122 Z" id="Path"></path>
                    <path d="M11.3344616,60.6027483 C14.5876324,51.7920962 23.0428074,45.2384121 32.2243193,45 C32.3061601,47.5483606 32.2652397,50.1073173 32.2754698,52.666274 C27.0018549,53.0901177 21.9788773,56.2053693 19.4162381,61.0424862 C15.6362173,67.7339195 17.400909,77.042588 23.3701705,81.7313596 C29.232016,86.7592062 38.5874395,86.3035741 43.9787006,80.7406248 C48.4952883,76.4333126 49.830316,69.4557848 48.0707393,63.4795878 C50.7101043,63.4795878 53.3494693,63.4372034 55.9888343,63.4795878 C55.8916483,68.1365711 56.4491886,73.0160723 54.689612,77.4187494 C52.6458386,82.8221934 48.8473515,87.3186319 43.9480103,90.1340621 C36.5148069,94.3239123 27.45046,93.8932596 20.4187876,89.0161742 C15.0900937,85.3620693 11.4178348,79.6279394 10.2398412,73.1220333 C9.86132763,68.9789606 9.74368152,64.5709855 11.3344616,60.6027483 Z" id="Path"></path>
                    <path d="M119.077759,47.0927993 C126.043111,43.8483378 134.108757,44.4026867 140.599693,48.571994 C146.186085,52.2832354 150.902801,58.4438962 151,65.5694796 C151,78.0427852 151,90.5196254 151,103 L143.894232,103 C143.919811,91.2194595 143.81238,79.4389189 143.970968,67.6636801 C143.761223,58.7832097 135.064458,51.6417209 126.68487,52.9088447 C121.159867,53.439022 116.391994,57.3994468 113.987594,62.4520369 C113.4176,59.2833218 112.411465,56.2158625 111,53.3435901 C112.949098,50.4329165 116.064586,48.6303135 119.077759,47.0927993 Z" id="Path"></path>
                    <path d="M164.025636,49.1637513 C170.885813,44.289739 180.391618,43.5154127 187.692733,47.7954214 C192.702879,50.6381735 196.590911,55.2079882 198.680295,60.7096977 C200.249215,64.7510442 200.172307,69.2325898 199.705733,73.4966876 C198.116305,82.3165814 191.348417,90.0545401 182.878304,92.2290178 C176.500083,93.9208676 169.434819,92.8336287 164,88.9142651 C164,85.4297971 164,81.9453291 164,78.4608612 C166.532831,81.9930616 170.36284,84.6872925 174.669677,85.0956701 C182.616817,86.5965901 190.917734,80.4921416 192.32771,72.298073 C193.865866,65.2442794 190.148656,57.4904099 183.842215,54.4090159 C177.151236,50.8927262 168.26582,53.1255436 164.005127,59.5694228 C164.025636,56.1008656 164.025636,52.6270048 164.025636,49.1637513 Z" id="Path"></path>
                    <path d="M83.0965296,44 C93.0942131,45.1962239 101.721044,54.2449934 102.886018,64.8355627 C103.091897,68.216889 103.117004,71.7098629 102.102673,74.9742251 C99.2756036,84.3579373 90.7240943,91.806425 81.278769,91.9393388 C74.8463066,92.4709939 68.514273,89.4618261 64,84.7247793 C65.3143653,81.8491438 66.3361169,78.8336472 67.048013,75.7291753 C69.2875387,80.0376541 73.2394419,83.0503264 77.8089551,83.9326132 C85.1051049,85.4425137 93.1092774,80.5991359 95.4291819,73.0868496 C96.8747616,68.7782348 96.4750751,64.0165312 94.3345084,60.0453504 C92.0397111,55.6272967 87.6861241,52.7191434 83.0915082,51.7196318 C83.0864867,49.1411046 83.0764438,46.567894 83.0965296,44 Z" id="Path"></path>
                    <path d="M113,84.6795056 C114.348476,81.5840362 115.350646,78.3360137 115.986589,75 C119.081499,81.987157 127.246905,85.7046483 134.272352,83.6327809 C137.764443,82.7317344 140.771664,80.3954881 143,77.4927155 C143,81.0699241 143,84.6525281 143,88.2351322 C133.797799,94.2726833 120.592847,93.0209301 113,84.6795056 Z" id="Path"></path>
                    <path d="M111.371175,89 C112.926843,89.5275216 113.977558,90.8538617 115.364908,91.6727762 C117.971291,93.4864457 121.021422,94.4611047 123.979744,95.566388 C127.198193,96.3099423 130.584961,96.1843419 133.839114,95.7573006 C136.766832,95.4106436 139.322209,93.8833429 142,92.8333237 C142,95.4709317 142,98.1135638 142,100.756196 C137.710434,102.157896 133.201545,103.167723 128.651851,102.976811 C120.643981,103.082315 112.972748,99.5152641 107,94.4359846 C108.5994,92.7395941 110.060959,90.9220021 111.371175,89 Z" id="Path"></path>
                    <path d="M53.791716,102.391353 C58.9156319,100.78787 64.8593744,104.294152 66.4580361,109.5803 C68.169424,114.577822 65.6792009,120.692436 61.0779244,122.942657 C58.6095732,124.135942 55.8034265,124.326514 53.2075896,123.477151 C48.6550751,121.892608 45.7024995,117.301258 46.0238595,112.306221 C46.1673292,107.693536 49.5952289,103.620689 53.791716,102.391353 Z M54.7345166,106.480234 C52.1725586,107.3087 50.0000183,109.922377 50.0512574,112.808646 C49.6977072,116.550106 53.0897396,120.083113 56.6713568,119.757071 C60.6833829,119.938799 63.9370695,115.272664 62.7893123,111.333442 C61.959238,107.853884 58.0650619,105.357796 54.7345166,106.480234 Z" id="Shape" fill-rule="nonzero"></path>
                    <circle id="Oval" cx="56" cy="113" r="4"></circle>
                    <circle id="Oval-Copy-7" cx="56" cy="132" r="4"></circle>
                    <path d="M46.0390346,133.206449 C45.7123712,129.707998 47.4732913,126.388562 49.9232672,124 C51.5289648,124.799997 53.2209948,125.412655 54.9661342,125.825946 C52.5059501,127.017669 49.9283713,129.08912 50.0559742,132.111904 C49.6986861,136.086021 53.7360422,139.707224 57.6457953,138.827497 C61.2186768,138.183046 63.8626091,134.224273 62.7243911,130.690019 C62.0812725,128.373063 60.04473,126.838655 57.9928752,125.825946 C59.745673,125.392619 61.4544154,124.796744 63.0969916,124.046032 C65.8225898,126.75682 67.7366334,130.761625 66.7260184,134.648792 C65.6388416,140.228923 59.3658826,144.315564 53.8636451,142.607256 C49.6731655,141.482023 46.2380952,137.6102 46.0390346,133.206449 Z" id="Path"></path>
                </g>
            </g>
        </g>
    </g>
</svg>