<?xml version="1.0" encoding="UTF-8"?>
<svg width="130px" height="88px" viewBox="0 0 130 88" version="1.1" xmlns="http://www.w3.org/2000/svg" xmlns:xlink="http://www.w3.org/1999/xlink">
    <!-- Generator: Sketch 52.3 (67297) - http://www.bohemiancoding.com/sketch -->
    <title>davinFooter</title>
    <desc>Created with Sketch.</desc>
    <defs>
        <filter x="-9.8%" y="-15.0%" width="119.7%" height="130.0%" filterUnits="objectBoundingBox" id="filter-1">
            <feOffset dx="0" dy="2" in="SourceAlpha" result="shadowOffsetOuter1"></feOffset>
            <feGaussianBlur stdDeviation="2" in="shadowOffsetOuter1" result="shadowBlurOuter1"></feGaussianBlur>
            <feColorMatrix values="0 0 0 0 0   0 0 0 0 0   0 0 0 0 0  0 0 0 0.5 0" type="matrix" in="shadowBlurOuter1" result="shadowMatrixOuter1"></feColorMatrix>
            <feMerge>
                <feMergeNode in="shadowMatrixOuter1"></feMergeNode>
                <feMergeNode in="SourceGraphic"></feMergeNode>
            </feMerge>
        </filter>
    </defs>
    <g id="Symbols" stroke="none" stroke-width="1" fill="none" fill-rule="evenodd">
        <g id="Footer" transform="translate(-110.000000, -192.000000)" fill="#FFFFFF">
            <g id="davinFooter" filter="url(#filter-1)" transform="translate(114.000000, 194.000000)">
                <path d="M84.0081254,0 L88.9920149,0 C88.9920149,7.33433079 89.0099814,14.6626768 88.9920149,22 C87.4193813,21.0129254 85.7511716,20.1361456 84.0045321,19.3786725 C84.0081254,12.9181175 83.990159,6.46055495 84.0081254,0 Z" id="Path"></path>
                <path d="M90.0102669,0 L94.9897331,0 C95.0034223,9.66666667 95.0034223,19.3333333 94.9897331,29 C93.6780499,26.7736792 91.9971669,24.7238601 90,22.9150732 C90.0102669,15.2757323 89.9897331,7.63934093 90.0102669,0 Z" id="Path"></path>
                <path d="M5.18724425,25.9907265 C8.66117892,22.2659925 13.4972287,20.1048633 18.5929448,20 C18.5929448,21.3655769 18.5929448,22.7341224 18.5929448,24.102668 C11.5660987,24.2778181 5.13671278,30.0399588 4.32523689,37.0251815 C3.3770288,43.0485631 6.72399528,49.3628719 12.1011377,52.1652732 C15.8415221,54.1453751 20.2522593,54.4295451 24.216378,52.9458202 C28.1804966,51.4620954 31.3178367,48.3527652 32.8339008,44.405234 C33.9782898,41.7334532 33.6929357,38.7648077 33.7077979,35.93272 C35.1375411,35.9030335 36.5702568,35.8970962 38,35.93272 C37.8067915,38.7321526 38.0862007,41.6028328 37.2479729,44.3280493 C35.0466541,51.8766796 28.4128952,57.2881516 20.5672902,57.9352738 C12.7216853,58.582396 5.28888755,54.3311636 1.877413,47.2454884 C-1.53406155,40.1598132 -0.217771138,31.7069837 5.18724425,25.9907265 Z" id="Path"></path>
                <path d="M30.3319998,20.2262519 C32.2006259,19.663165 34.2980635,20.1885193 35.8029382,21.3872558 C37.6480677,22.8817842 38.4221952,25.3164266 37.7742361,27.5870169 C37.0173985,30.5069419 33.7143011,32.6112615 30.7338864,31.8391939 C28.0937553,31.2790095 25.9699165,28.794461 26.0080517,26.1009319 C25.8584443,23.477063 27.8121413,20.9605869 30.3319998,20.2262519 Z M30.6546825,22.5482598 C29.2436791,23.1287618 28.1494914,24.5800167 28.2785645,26.1386645 C28.2961653,27.9411231 29.886111,29.5375036 31.6843336,29.6971416 C33.9489795,29.9351474 36.0640178,27.7205324 35.6738651,25.4972098 C35.4391868,23.2448622 32.75212,21.5904315 30.6546825,22.5337472 L30.6546825,22.5482598 Z" id="Shape" fill-rule="nonzero"></path>
                <path d="M48.5012471,19 C53.7980561,19.5419553 58.8887288,22.236843 62.0972865,26.5069743 C65.8376164,31.3041721 66.9698729,37.9386579 65.1445202,43.7214997 C63.5026844,48.9930299 59.6573628,53.3012964 54.5957143,55.5402942 C49.7918401,57.4937156 44.1664079,57.5205156 39.4043585,55.4152276 C37.4430095,54.5690513 35.621034,53.4326365 34,52.0443848 C34.9314675,51.0023509 35.8032066,49.9087616 36.611061,48.7688307 C40.6407128,52.534995 46.390099,53.8519538 51.6649926,52.2170958 C56.7018905,50.4661633 60.7170689,45.9161209 61.6133141,40.6484345 C62.0405243,37.5813248 61.7537259,34.3474596 60.3077836,31.5632386 C58.0970455,27.0251074 53.5112577,23.8388867 48.513197,23.168887 C48.4564348,21.7931543 48.4773472,20.3876438 48.5012471,19 Z" id="Path"></path>
                <path d="M63,24.5781012 C67.5790815,19.9455545 74.5697538,17.933079 80.8722405,19.5543221 C87.4041224,21.0985044 92.8772571,26.4394187 94.5741935,32.9895966 C95.1447406,35.953478 94.9682827,39.0092398 94.9918104,42.0264711 C94.9918104,47.0176474 94.9918104,52.0088237 94.9918104,57 C93.5585805,57 92.1282915,57 90.7009434,57 C90.7009434,51.0228391 90.7009434,45.0446903 90.7009434,39.0655535 C90.6715338,37.1212473 90.8774013,35.129519 90.2597988,33.2504182 C88.8910077,29.1988638 85.8477699,25.9435576 81.9161592,24.325351 C77.9845485,22.7071445 73.5501352,22.884734 69.7583361,24.8122478 C68.1878612,25.6095319 66.8673681,26.7980483 65.4968788,27.8917206 C64.7385373,26.732518 63.9043968,25.6255263 63,24.5781012 Z" id="Path"></path>
                <path d="M96,20.5722619 C100.530568,18.5854623 105.830809,18.4282976 110.393447,20.406201 C115.463047,22.5282858 119.364673,26.802136 121.07015,32.1014859 C122.775626,37.4008359 122.113863,43.194064 119.25925,47.9545109 C116.591638,52.4559462 112.002761,55.8216439 106.871615,56.6608443 C103.244828,57.3310185 99.3877223,57.040412 96.0029154,55.4984183 C96.0029154,53.9742169 96.0029154,52.4500155 96.0029154,50.9287794 C98.2681996,52.239474 100.84835,53.0490207 103.472231,52.9007521 C106.183575,53.0401246 108.76664,51.9874174 111.052333,50.5936923 C115.107687,48.0197491 117.865678,43.3225991 117.900663,38.4297346 C118.192205,32.1045953 113.932771,25.9751704 108.052362,23.9913363 C104.119455,22.6747109 99.5743094,22.8971139 96.0058308,25.1478315 C96,23.6028725 96,22.0934979 96,20.5722619 Z" id="Path"></path>
                <path d="M30.8511344,23.5872968 C32.7853449,22.5041361 35.4046547,24.6861554 34.6749444,26.7582889 C34.2352062,28.5321608 31.6955591,29.5242732 30.303055,28.1679676 C28.7193604,27.0471318 29.0921819,24.3502187 30.8511344,23.5872968 Z" id="Path"></path>
                <path d="M6.75426089,34.4514887 C8.5930096,29.6790521 13.3720216,26.1291399 18.5615718,26 C18.6078296,27.380362 18.5847007,28.7664635 18.5904829,30.1525651 C15.6097441,30.3821471 12.7706698,32.0695751 11.3222215,34.68968 C9.18568804,38.3142064 10.1831225,43.3564019 13.5570529,45.8961531 C16.8702699,48.61957 22.158118,48.3727693 25.2053525,45.3595051 C27.7582064,43.0263777 28.5127873,39.2468834 27.518244,36.0097767 C29.0100589,36.0097767 30.5018739,35.9868185 31.9936889,36.0097767 C31.9387578,38.5323093 32.2538892,41.1753725 31.2593459,43.5601559 C30.1041696,46.4870214 27.9571987,48.9225923 25.1880058,50.447617 C20.98663,52.7171192 15.8633035,52.4838489 11.8888799,49.8420943 C8.87700947,47.8627875 6.80138488,44.7568005 6.13556243,41.232768 C5.92161997,38.9886036 5.85512434,36.6009505 6.75426089,34.4514887 Z" id="Path"></path>
                <path d="M70.6447116,26.1546479 C74.6497886,24.3646002 79.2875351,24.6704479 83.0198235,26.9707553 C86.231999,29.0183368 88.9441105,32.417322 89,36.3486784 C89,43.2305022 89,50.1142761 89,57 L84.9141834,57 C84.9288912,50.5003914 84.8671186,44.0007828 84.9583067,37.5040994 C84.837703,32.6045295 79.8370636,28.6643977 75.0188004,29.3635005 C71.8419235,29.6560122 69.1003965,31.8410741 67.7178667,34.62871 C67.3901198,32.8804534 66.8115923,31.188062 66,29.6033601 C67.1207316,27.9974712 68.9121371,27.0029316 70.6447116,26.1546479 Z" id="Path"></path>
                <path d="M96.0142422,27.2553653 C99.8254515,24.6152753 105.106454,24.1958486 109.162629,26.5141866 C111.946044,28.0540107 114.106062,30.529327 115.266831,33.5094196 C116.138453,35.6984823 116.095726,38.1259861 115.836518,40.4357058 C114.953503,45.2131483 111.193565,49.4045425 106.487947,50.5823846 C102.94449,51.4988033 99.0193437,50.9098822 96,48.7868936 C96,46.8994735 96,45.0120533 96,43.1246331 C97.4071281,45.0379084 99.5349108,46.4972835 101.927598,46.718488 C106.342676,47.5314863 110.954296,44.22491 111.737617,39.7864562 C112.592148,35.9656513 110.527031,31.7656387 107.023453,30.0965503 C103.306242,28.1918934 98.3698999,29.4013361 96.0028484,32.8917707 C96.0142422,31.0129689 96.0142422,29.1312943 96.0142422,27.2553653 Z" id="Path"></path>
                <path d="M48.2620559,25 C54.1581257,25.6479546 59.2457439,30.5493714 59.9327797,36.2859298 C60.0541955,38.1174815 60.0690023,40.0095091 59.4708073,41.7777053 C57.8035611,46.8605494 52.7603633,50.8951469 47.1900432,50.9671418 C43.3965398,51.2551217 39.6622635,49.6251558 37,47.0592555 C37.7751385,45.5016196 38.37771,43.8682256 38.7975461,42.1866366 C40.118292,44.520396 42.4489016,46.1522601 45.1437428,46.6301655 C49.4466003,47.4480282 54.1670098,44.8245319 55.5351586,40.7553768 C56.3876799,38.4215438 56.1519674,35.8422877 54.8895819,33.6912315 C53.5362399,31.298119 50.9687399,29.7228693 48.2590946,29.1814672 C48.2561332,27.784765 48.2502105,26.3909426 48.2620559,25 Z" id="Path"></path>
                <path d="M66,46.6938268 C66.7641365,44.8729625 67.3320327,42.962361 67.6924003,41 C69.4461829,45.1100924 74.0732462,47.2968519 78.0543329,46.0781064 C80.0331843,45.5480791 81.7372765,44.1738165 83,42.4663032 C83,44.5705436 83,46.6779577 83,48.7853719 C77.7854195,52.3368726 70.3026135,51.6005471 66,46.6938268 Z" id="Path"></path>
                <path d="M65.497814,49 C66.3867677,49.3014409 66.9871758,50.0593495 67.7799475,50.5273007 C69.2693092,51.5636832 71.0122413,52.1206312 72.7027106,52.7522217 C74.5418245,53.1771099 76.4771204,53.1053382 78.3366365,52.8613146 C80.0096182,52.6632249 81.4698339,51.7904817 83,51.1904707 C83,52.6976753 83,54.2077507 83,55.7178262 C80.5488196,56.5187978 77.9723113,57.0958418 75.3724862,56.9867489 C70.7965608,57.0470371 66.4129991,55.0087223 63,52.1062769 C63.9139428,51.1369109 64.7491193,50.0982869 65.497814,49 Z" id="Path"></path>
                <path d="M30.4524092,57.213465 C33.3803611,56.338838 36.7767853,58.2513557 37.6903063,61.1347093 C38.6682423,63.8606301 37.2452577,67.1958744 34.6159568,68.4232676 C33.2054704,69.0741502 31.601958,69.1780988 30.1186226,68.7148099 C27.5171858,67.8505132 25.8299997,65.3461407 26.013634,62.6215752 C26.0956167,60.1055649 28.0544165,57.8840124 30.4524092,57.213465 Z M30.9911523,59.4437638 C29.5271764,59.8956545 28.2857247,61.3212964 28.3150042,62.895625 C28.1129756,64.9364213 30.0512797,66.8635161 32.0979182,66.6856753 C34.3905045,66.7847997 36.249754,64.2396352 35.5938928,62.0909682 C35.1195645,60.1930276 32.8943211,58.831525 30.9911523,59.4437638 Z" id="Shape" fill-rule="nonzero"></path>
                <circle id="Oval" cx="31.95" cy="62.95" r="2.75"></circle>
                <ellipse id="Oval-Copy-7" cx="32" cy="73.85" rx="2.8" ry="2.75"></ellipse>
                <path d="M26.0223055,74.3300493 C25.8356407,72.3046305 26.8418808,70.3828517 28.241867,69 C29.1594085,69.4631559 30.1262828,69.8178529 31.1235053,70.0571264 C29.7176858,70.7470717 28.2447836,71.9463328 28.3176996,73.6963656 C28.1135349,75.9971702 30.4205955,78.0936563 32.6547402,77.5843405 C34.6963867,77.211237 36.2072052,74.9193158 35.5567949,72.8731691 C35.1892986,71.5317734 34.02556,70.6434319 32.8530716,70.0571264 C33.8546703,69.8062529 34.8310945,69.4612729 35.7697095,69.0266502 C37.3271942,70.5960536 38.4209334,72.9146251 37.8434391,75.1650903 C37.2221952,78.3956924 33.6376472,80.761642 30.4935115,79.7726218 C28.0989517,79.1211713 26.1360544,76.8795895 26.0223055,74.3300493 Z" id="Path"></path>
            </g>
        </g>
    </g>
</svg>