<?xml version="1.0" encoding="UTF-8"?>
<svg width="33px" height="30px" viewBox="0 0 33 30" version="1.1" xmlns="http://www.w3.org/2000/svg" xmlns:xlink="http://www.w3.org/1999/xlink">
    <!-- Generator: Sketch 52.3 (67297) - http://www.bohemiancoding.com/sketch -->
    <title>Fill 3</title>
    <desc>Created with Sketch.</desc>
    <g id="project" stroke="none" stroke-width="1" fill="none" fill-rule="evenodd">
        <g id="Desktop-HD" transform="translate(-153.000000, -84.000000)" fill="#696969">
            <path d="M169.293744,100.000074 C176.608436,100.042244 183.4991,105.01379 185.857157,112.853179 C185.937331,113.119357 186.053106,113.395704 185.972932,113.64633 C185.787112,114.226538 185.010259,114.088963 184.76771,113.262316 C183.134408,107.786826 178.925971,103.093421 173.422006,101.699127 C168.54294,100.463044 163.080944,101.47153 159.330978,104.819689 C156.864093,107.022088 155.024421,110.04246 154.16392,113.237193 C154.16392,113.237193 153.748865,114.067728 153.220061,113.6236 C152.681416,113.171397 153.254504,112.142275 153.630774,111.187324 C156.099975,104.920478 161.851988,100.126583 168.912264,100.002466 C169.039327,100.000672 169.16668,99.9997748 169.293744,100.000074 Z M169.522225,84.0000743 C172.966667,84.0327808 176.218284,86.6704275 176.877655,90.102002 C177.521367,93.4531128 175.565583,97.1243418 172.407333,98.4586501 C168.908379,99.9368089 164.390794,98.2771726 162.698874,94.8285212 C160.951571,91.2672786 162.603187,86.4220898 166.288585,84.7036976 C167.296198,84.2339401 168.404427,83.9966011 169.522225,84.0000743 Z M169.454997,85.0000924 C166.507402,85.0282896 163.740314,87.2644787 163.127477,90.1744333 C162.509313,93.1099137 164.195725,96.3712949 166.964588,97.5466743 C170.566744,99.075558 175.341606,96.5749086 175.938168,92.4839351 C176.464006,88.8770637 173.57293,85.1140686 169.665096,85.0021701 C169.59526,85.000686 169.525128,84.9997956 169.454997,85.0000924 Z" id="Fill-3"></path>
        </g>
    </g>
</svg>