<?xml version="1.0" encoding="UTF-8"?>
<svg width="41px" height="35px" viewBox="0 0 41 35" version="1.1" xmlns="http://www.w3.org/2000/svg" xmlns:xlink="http://www.w3.org/1999/xlink">
    <!-- Generator: Sketch 52.3 (67297) - http://www.bohemiancoding.com/sketch -->
    <title>Fill 27</title>
    <desc>Created with Sketch.</desc>
    <g id="project" stroke="none" stroke-width="1" fill="none" fill-rule="evenodd">
        <g id="Desktop-HD" transform="translate(-77.000000, -79.000000)" fill="#727272">
            <path d="M93.9843992,106.000275 C96.6859822,106.051659 98.9084686,109.172498 97.6277706,111.787573 C96.5536248,113.980932 93.2599753,114.764537 91.2854261,113.120618 C88.8422198,111.087283 89.977511,106.074782 93.8788861,106.000275 C93.9318291,105.999908 93.9318291,105.999908 93.9843992,106.000275 Z M110.984596,106.000275 C113.685923,106.051659 115.908505,109.172498 114.627752,111.787573 C113.55356,113.980932 110.259768,114.764537 108.285134,113.120618 C105.842195,111.087283 106.977908,106.074782 110.878706,106.000275 C110.931651,105.999908 110.931278,105.999908 110.984596,106.000275 Z M93.4208801,107.000049 C91.5084202,107.037856 90.094503,109.815338 91.6937989,111.407242 C93.2650181,112.971617 97.0456629,111.250143 95.7249749,108.456511 C95.3103026,107.579257 94.3873689,106.99381 93.4208801,107.000049 Z M110.420447,107.000049 C108.510645,107.037856 107.094044,109.815338 108.693165,111.407242 C110.264927,112.971617 114.046011,111.250143 112.72481,108.456511 C112.310089,107.579257 111.387408,106.99381 110.420447,107.000049 Z M117.221503,105 L88.8069641,105 C87.6751916,104.977828 86.966656,103.359274 87.9171489,102.51865 L90.7637284,100.098464 C89.4947713,94.3199875 88.3185268,88.5201038 86.9557264,82.7637995 C86.6406542,81.4931158 85.4399125,80.5412498 84.1498501,80.5343689 L77.6546893,80.5343689 C76.8526873,80.476263 76.7136183,79.0733119 77.6546893,79.0052669 C79.8364513,79.0052669 82.0182133,78.9934164 84.1999752,79.0052669 C86.1544782,79.0377603 87.9661434,80.4831439 88.4308373,82.4461286 L89.0199017,85.1277911 C89.0402532,85.1247329 89.0606048,85.1228215 89.0809563,85.1216747 C97.887903,85.1216747 106.695227,85.0654802 115.502173,85.1216747 C116.787713,85.1465226 117.933807,86.2834099 117.97451,87.597673 C118.031419,90.562984 117.975264,93.5294417 117.975264,96.495135 C117.959812,97.7612314 116.956179,98.8942959 115.692121,99.0215937 L91.901531,101.126402 L89.1438954,103.470898 L117.221503,103.470898 C117.224518,103.470898 117.654915,103.505303 117.855416,103.821827 C118.144106,104.277117 117.79813,104.95795 117.221503,105 Z M90,86 L92.8198224,99 C100.570119,98.3104836 108.328284,97.7063873 116.06959,96.9164447 C116.546116,96.856035 116.933856,96.4235482 116.950714,95.9291127 C116.986678,92.9459539 117.040999,89.9608714 116.950339,86.978867 C116.927487,86.4613449 116.483553,86.0100041 115.972186,86 L90,86 Z" id="Fill-27"></path>
        </g>
    </g>
</svg>