<?xml version="1.0" encoding="UTF-8"?>
<svg width="670px" height="184px" viewBox="0 0 670 184" version="1.1" xmlns="http://www.w3.org/2000/svg" xmlns:xlink="http://www.w3.org/1999/xlink">
    <!-- Generator: Sketch 52.3 (67297) - http://www.bohemiancoding.com/sketch -->
    <title>phone</title>
    <desc>Created with Sketch.</desc>
    <defs>
        <rect id="path-1" x="0" y="0" width="670" height="184"></rect>
    </defs>
    <g id="Orginal" stroke="none" stroke-width="1" fill="none" fill-rule="evenodd">
        <g id="davin" transform="translate(-32.000000, -783.000000)">
            <g id="phone" transform="translate(32.000000, 783.000000)">
                <mask id="mask-2" fill="white">
                    <use xlink:href="#path-1"></use>
                </mask>
                <use id="Mask" fill="#FFEECF" xlink:href="#path-1"></use>
                <g id="text" mask="url(#mask-2)">
                    <g transform="translate(144.155445, 42.000000) rotate(-30.000000) translate(-144.155445, -42.000000) translate(126.655445, 20.000000)">
                        <rect id="Rectangle" fill="#3B97D3" x="-2.27373675e-13" y="4" width="26" height="36"></rect>
                        <g id="Group" stroke-width="1" fill="none">
                            <path d="M25.9227748,6.06899219 L25.9227748,1.51722656 C25.9202781,0.680367187 25.2412649,0.0024921875 24.4028079,0 L1.60313245,0 C0.764675497,0.0024921875 0.0856622517,0.680367187 0.0831655629,1.51722656 L0.0831655629,6.06899219 L25.9227748,6.06899219 Z" id="Path" fill="#2C3E50"></path>
                            <path d="M25.9227748,37.1724375 L25.9227748,42.4827734 C25.9202781,43.3197188 25.2411788,43.9975078 24.4028079,44 L1.60313245,44 C0.764675497,43.9975078 0.0856622517,43.3196328 0.0831655629,42.4827734 L0.0831655629,37.1724375 L25.9227748,37.1724375 Z" id="Path" fill="#2C3E50"></path>
                        </g>
                        <path d="M13.1458044,42.7977494 L11.6458469,42.7977494 C11.23167,42.7977494 10.8958256,42.3500829 10.8958256,41.7977494 C10.8958256,41.2454159 11.231585,40.7977494 11.6458469,40.7977494 L13.1458044,40.7977494 C13.5599813,40.7977494 13.8958256,41.2454159 13.8958256,41.7977494 C13.8958256,42.3500829 13.5599813,42.7977494 13.1458044,42.7977494 Z" id="Path" fill="#35495E"></path>
                        <path d="M26.0346097,9.69134295 C26.0346097,9.69134295 19.9169372,31.637268 0.0346096908,32.3940596 L0.0346096908,37.691343 L26.0346097,37.691343 L26.0346097,9.69134295 Z" id="Path" fill="#2980BA"></path>
                    </g>
                </g>
                <path d="M-82,155.166711 C-39.7747283,181.341901 66.3232403,171.320497 99.4146071,147.537062 C132.505974,123.753628 149.548028,86.7763219 201.666931,74.5196135 C253.785833,62.2629051 305.408365,118.263005 221.02538,137.379952 C136.642395,156.496898 100.9898,112.118232 100.9898,95.7937167 C100.9898,84.9107068 108.406664,74.3128013 123.240391,64" id="Path-12" stroke="#EC7B73" stroke-width="4" stroke-linecap="round" stroke-dasharray="10,20" mask="url(#mask-2)"></path>
                <g id="sms" mask="url(#mask-2)">
                    <g transform="translate(154.673394, 40.504809) rotate(-30.000000) translate(-154.673394, -40.504809) translate(139.173394, 26.004809)">
                        <g id="Group" stroke-width="1" fill="none" transform="translate(0.444864, 9.232051)">
                            <path d="M29.9233227,15.6567308 L29.9233227,0.0456730769 L0.0766773163,0.0456730769 L0.0766773163,15.6567308 C0.0766773163,17.5019231 1.63897764,18.9908654 3.57507987,18.9908654 L26.4249201,18.9908654 C28.3610224,18.9908654 29.9233227,17.5019231 29.9233227,15.6567308 Z" id="Path" fill="#FFD05B"></path>
                            <path d="M29.9233227,0.0456730769 L29.9233227,15.6567308 C29.9233227,16.6067308 29.5015974,17.4653846 28.8402556,18.0682692 C28.2076677,18.64375 27.3642173,18.9908654 26.4249201,18.9908654 L3.57507987,18.9908654 C2.63578275,18.9908654 1.7827476,18.64375 1.15974441,18.0682692 C0.488817891,17.45625 0.0766773163,16.6067308 0.0766773163,15.6567308 L0.0766773163,0.0456730769 L29.9233227,0.0456730769 Z" id="Path" fill="#FFD05B"></path>
                        </g>
                        <g id="Group" stroke-width="1" fill="none">
                            <path d="M12.9968051,0.666350711 L0.519634666,9.28102583 L15,18.9279621 L30.0811074,9.4625254 L30.372021,9.27993777 L17.0031949,0.666350711 C15.7955272,-0.126066351 14.1948882,-0.126066351 12.9968051,0.666350711 Z" id="Path" fill="#FF7058"></path>
                        </g>
                        <path d="M24.6506351,5.57179677 L24.9649504,12.68147 L15.0373761,18.925971 L4.82985126,12.1540624 L4.5,6.57048244 C4.5,5.77957335 5.17531345,5.1341188 6.0028102,5.1341188 L23.1460811,4.17776075 C23.9735778,4.17776075 24.6506351,4.78088768 24.6506351,5.57179677 Z" id="Path" fill="#FFFFFF"></path>
                        <path d="M29.6386375,26.9268299 C29.6396514,26.9274153 29.3048351,27.3140477 28.9919052,27.5491425 C28.5706682,27.8656052 28.1006748,28.0606197 27.7055089,28.1201387 C27.5730396,28.1400909 26.659662,28.2023284 25.2182729,28.2170958 C23.6046343,28.2336279 21.3365185,28.2018258 18.9067443,28.2075049 C12.2226592,28.2231278 4.12244295,28.2031224 3.84924092,28.2031224 C2.70425259,28.2031224 1.84992214,27.6056794 1.32021945,27.0079954 C1.17200776,26.8407624 0.990381057,26.5525589 0.990381057,26.5525589 L13.0498615,15.0251969 C14.4456371,13.6582677 16.5443213,13.6582677 17.940097,15.0251969 L29.6386375,26.9268299 Z" id="Path" fill="#F9B54C"></path>
                        <g id="Group" stroke-width="1" fill="none" transform="translate(14.732475, 9.500000) rotate(-2.000000) translate(-14.732475, -9.500000) translate(7.732475, 7.500000)">
                            <path d="M1.4,0.865306122 C1.30344828,0.930612245 1.25517241,1.02040816 1.25517241,1.13469388 C1.25517241,1.24897959 1.31310345,1.33877551 1.43862069,1.40408163 C1.55448276,1.46938776 1.83448276,1.55102041 2.26896552,1.64081633 C2.70344828,1.73061224 3.03172414,1.86938776 3.27310345,2.04897959 C3.51448276,2.22857143 3.63034483,2.48979592 3.63034483,2.83265306 C3.63034483,3.1755102 3.47586207,3.46122449 3.16689655,3.67346939 C2.85793103,3.88571429 2.46206897,3.99183673 1.96,3.99183673 C1.23586207,3.99183673 0.588965517,3.76326531 0.00965517241,3.31428571 L0.617931034,2.68571429 C1.11034483,3.04489796 1.56413793,3.23265306 1.97931034,3.23265306 C2.16275862,3.23265306 2.30758621,3.2 2.42344828,3.13469388 C2.52965517,3.06938776 2.58758621,2.97142857 2.58758621,2.85714286 C2.58758621,2.74285714 2.52965517,2.65306122 2.4137931,2.57959184 C2.29793103,2.51428571 2.07586207,2.44081633 1.74758621,2.3755102 C1.21655172,2.26938776 0.830344828,2.13061224 0.588965517,1.95918367 C0.347586207,1.7877551 0.222068966,1.51836735 0.222068966,1.15918367 C0.222068966,0.791836735 0.376551724,0.514285714 0.685517241,0.310204082 C0.994482759,0.114285714 1.38068966,0.0163265306 1.84413793,0.0163265306 C2.14344828,0.0163265306 2.45241379,0.0571428571 2.75172414,0.146938776 C3.05103448,0.236734694 3.32137931,0.359183673 3.54344828,0.52244898 L3.03172414,1.15102041 C2.63586207,0.897959184 2.23034483,0.767346939 1.80551724,0.767346939 C1.63172414,0.759183673 1.49655172,0.8 1.4,0.865306122 Z" id="Path" fill="#4CDBC4"></path>
                            <polygon id="Path" fill="#4CDBC4" points="8.56413793 1.52653061 7.33793103 3.63265306 6.72965517 3.63265306 5.50344828 1.52653061 5.50344828 3.95102041 4.48965517 3.95102041 4.48965517 0.106122449 5.86068966 0.106122449 7.02896552 2.22040816 8.20689655 0.106122449 9.57793103 0.106122449 9.57793103 3.95102041 8.56413793 3.95102041"></polygon>
                            <path d="M11.76,0.865306122 C11.6634483,0.930612245 11.6151724,1.02040816 11.6151724,1.13469388 C11.6151724,1.24897959 11.6731034,1.33877551 11.7986207,1.40408163 C11.9144828,1.46938776 12.1944828,1.55102041 12.6289655,1.64081633 C13.0634483,1.73061224 13.3917241,1.86938776 13.6331034,2.04897959 C13.8744828,2.22857143 13.9903448,2.48979592 13.9903448,2.83265306 C13.9903448,3.1755102 13.8358621,3.46122449 13.5268966,3.67346939 C13.217931,3.88571429 12.822069,3.99183673 12.32,3.99183673 C11.5958621,3.99183673 10.9489655,3.76326531 10.3696552,3.31428571 L10.977931,2.68571429 C11.4703448,3.04489796 11.9241379,3.23265306 12.3393103,3.23265306 C12.5227586,3.23265306 12.6675862,3.2 12.7834483,3.13469388 C12.8896552,3.06938776 12.9475862,2.97142857 12.9475862,2.85714286 C12.9475862,2.74285714 12.8896552,2.65306122 12.7737931,2.57959184 C12.657931,2.51428571 12.4358621,2.44081633 12.1075862,2.3755102 C11.5765517,2.26938776 11.1903448,2.13061224 10.9489655,1.95918367 C10.7075862,1.7877551 10.582069,1.51836735 10.582069,1.15918367 C10.582069,0.791836735 10.7365517,0.514285714 11.0455172,0.310204082 C11.3544828,0.114285714 11.7406897,0.0163265306 12.2041379,0.0163265306 C12.5034483,0.0163265306 12.8124138,0.0571428571 13.1117241,0.146938776 C13.4110345,0.236734694 13.6813793,0.359183673 13.9034483,0.52244898 L13.3917241,1.15102041 C12.9958621,0.897959184 12.5903448,0.767346939 12.1655172,0.767346939 C11.9917241,0.759183673 11.8565517,0.8 11.76,0.865306122 Z" id="Path" fill="#4CDBC4"></path>
                        </g>
                    </g>
                </g>
                <g id="Group-9" mask="url(#mask-2)">
                    <g transform="translate(161.000000, 11.633733)" id="Group-8">
                        <g>
                            <g id="Group-7"></g>
                        </g>
                    </g>
                </g>
            </g>
        </g>
    </g>
</svg>