<?xml version="1.0" encoding="UTF-8"?>
<svg width="87px" height="87px" viewBox="0 0 87 87" version="1.1" xmlns="http://www.w3.org/2000/svg" xmlns:xlink="http://www.w3.org/1999/xlink">
    <!-- Generator: Sketch 54.1 (76490) - https://sketchapp.com -->
    <title>Path</title>
    <desc>Created with Sketch.</desc>
    <g id="Page-1" stroke="none" stroke-width="1" fill="none" fill-rule="evenodd">
        <g id="Desktop" transform="translate(-723.000000, -3667.000000)" fill="#FFFFFF">
            <g id="Feed/Gallery" transform="translate(0.000000, 3452.000000)">
                <g id="Image-2-Mouse-Over" transform="translate(590.000000, 82.000000)">
                    <path d="M215.05466,215.053777 C214.06626,216.042178 212.348915,216.038647 211.364045,215.053777 L189.23977,192.931268 C190.56352,191.796373 191.797255,190.564402 192.930385,189.240652 L215.05466,211.364927 C216.0713,212.381567 216.0713,214.037137 215.05466,215.053777 M167.35377,197.525563 C150.71688,197.525563 137.181095,183.989777 137.181095,167.354653 C137.181095,150.717762 150.71688,137.181977 167.35377,137.181977 C183.988895,137.181977 197.52468,150.717762 197.52468,167.354653 C197.52468,183.989777 183.988895,197.525563 167.35377,197.525563 M217.55037,208.869217 L195.11016,186.429007 C198.85196,180.999867 201.05468,174.432302 201.05468,167.354653 C201.05468,148.769202 185.937455,133.651977 167.35377,133.651977 C148.76832,133.651977 133.651095,148.769202 133.651095,167.354653 C133.651095,185.938337 148.76832,201.055563 167.35377,201.055563 C174.43142,201.055563 180.998985,198.852842 186.428125,195.109277 L208.868335,217.549487 C210.02794,218.709092 211.568785,219.348022 213.210235,219.348022 C214.84992,219.348022 216.390765,218.709092 217.55037,217.549487 C218.709975,216.389882 219.348905,214.849037 219.348905,213.209352 C219.348905,211.569667 218.709975,210.028822 217.55037,208.869217" id="Zoom-Icon"></path>
                </g>
            </g>
        </g>
    </g>
</svg>