<?xml version="1.0" encoding="UTF-8"?>
<svg width="1690px" height="880px" viewBox="0 0 1690 880" version="1.1" xmlns="http://www.w3.org/2000/svg" xmlns:xlink="http://www.w3.org/1999/xlink">
    <!-- Generator: Sketch 54.1 (76490) - https://sketchapp.com -->
    <title>Rectangle</title>
    <desc>Created with Sketch.</desc>
    <g id="Page-1" stroke="none" stroke-width="1" fill="none" fill-rule="evenodd">
        <g id="Desktop" transform="translate(0.000000, -9877.000000)" fill="#2F5BEA">
            <path d="M-594.048547,9951.31162 L1154.33163,9980.12112 C1441.22896,9984.84857 1673.51795,10214.6745 1681.30338,10501.5051 L1701.17985,11233.7929 C1709.21188,11529.7085 1475.8361,11776.1068 1179.92046,11784.1388 C1175.07451,11784.2704 1170.227,11784.3362 1165.37927,11784.3362 L-602.885732,11784.3477 C-898.910358,11784.3489 -1138.88666,11544.3744 -1138.88781,11248.3498 C-1138.88781,11248.3482 -1138.88781,11248.3467 -1138.88781,11248.3451 L-1138.87946,10487.2363 C-1138.87803,10191.2117 -898.901497,9951.23744 -602.876871,9951.23887 C-599.933946,9951.23888 -596.991072,9951.26314 -594.048547,9951.31162 Z" id="Rectangle" transform="translate(281.247683, 10867.792001) rotate(-7.000000) translate(-281.247683, -10867.792001) "></path>
        </g>
    </g>
</svg>